<svg width="40" height="40" viewBox="0 0 40 40" fill="none" xmlns="http://www.w3.org/2000/svg">
<path d="M0 20C0 8.95431 8.95431 0 20 0V0C31.0457 0 40 8.95431 40 20V20C40 31.0457 31.0457 40 20 40V40C8.95431 40 0 31.0457 0 20V20Z" fill="#6666FF"/>
<path d="M26.6487 25.125C25.7918 23.621 24.4537 22.4492 22.8499 21.7981C23.6475 21.1999 24.2366 20.366 24.5338 19.4144C24.8311 18.4628 24.8214 17.4418 24.5062 16.496C24.1909 15.5502 23.586 14.7276 22.7773 14.1447C21.9685 13.5618 20.9968 13.2481 19.9999 13.2481C19.003 13.2481 18.0313 13.5618 17.2225 14.1447C16.4138 14.7276 15.8089 15.5502 15.4937 16.496C15.1784 17.4418 15.1687 18.4628 15.466 19.4144C15.7632 20.366 16.3524 21.1999 17.1499 21.7981C15.5461 22.4492 14.2081 23.621 13.3512 25.125C13.2981 25.2104 13.2627 25.3055 13.2471 25.4049C13.2315 25.5042 13.2361 25.6056 13.2605 25.7032C13.2849 25.8007 13.3287 25.8923 13.3892 25.9726C13.4497 26.0529 13.5258 26.1202 13.6128 26.1705C13.6999 26.2208 13.7962 26.253 13.896 26.2654C13.9957 26.2777 14.097 26.2699 14.1937 26.2423C14.2904 26.2148 14.3805 26.168 14.4588 26.1049C14.5371 26.0418 14.6018 25.9636 14.6493 25.875C15.7818 23.9175 17.7818 22.75 19.9999 22.75C22.218 22.75 24.218 23.9181 25.3505 25.875C25.4534 26.0403 25.6164 26.1592 25.8053 26.2065C25.9942 26.2537 26.194 26.2257 26.3626 26.1283C26.5312 26.0309 26.6553 25.8718 26.7087 25.6845C26.7621 25.4973 26.7405 25.2966 26.6487 25.125ZM16.7499 18C16.7499 17.3572 16.9405 16.7288 17.2976 16.1944C17.6547 15.6599 18.1623 15.2434 18.7562 14.9974C19.35 14.7514 20.0035 14.687 20.6339 14.8124C21.2644 14.9378 21.8435 15.2474 22.298 15.7019C22.7525 16.1564 23.0621 16.7355 23.1875 17.3659C23.3129 17.9964 23.2485 18.6498 23.0025 19.2437C22.7565 19.8376 22.34 20.3451 21.8055 20.7023C21.271 21.0594 20.6427 21.25 19.9999 21.25C19.1383 21.249 18.3122 20.9063 17.7029 20.297C17.0936 19.6877 16.7509 18.8616 16.7499 18Z" fill="#E2E8F0"/>
</svg>
