<svg width="72" height="72" viewBox="0 0 72 72" fill="none" xmlns="http://www.w3.org/2000/svg">
<rect width="72" height="72" fill="#F1F5F9"/>
<path d="M54.3488 31.2787C53.6419 30.54 52.9106 29.7788 52.635 29.1094C52.38 28.4963 52.365 27.48 52.35 26.4956C52.3219 24.6656 52.2919 22.5919 50.85 21.15C49.4081 19.7081 47.3344 19.6781 45.5044 19.65C44.52 19.635 43.5037 19.62 42.8906 19.365C42.2231 19.0894 41.46 18.3581 40.7212 17.6512C39.4275 16.4081 37.9575 15 36 15C34.0425 15 32.5744 16.4081 31.2787 17.6512C30.54 18.3581 29.7788 19.0894 29.1094 19.365C28.5 19.62 27.48 19.635 26.4956 19.65C24.6656 19.6781 22.5919 19.7081 21.15 21.15C19.7081 22.5919 19.6875 24.6656 19.65 26.4956C19.635 27.48 19.62 28.4963 19.365 29.1094C19.0894 29.7769 18.3581 30.54 17.6512 31.2787C16.4081 32.5725 15 34.0425 15 36C15 37.9575 16.4081 39.4256 17.6512 40.7212C18.3581 41.46 19.0894 42.2213 19.365 42.8906C19.62 43.5037 19.635 44.52 19.65 45.5044C19.6781 47.3344 19.7081 49.4081 21.15 50.85C22.5919 52.2919 24.6656 52.3219 26.4956 52.35C27.48 52.365 28.4963 52.38 29.1094 52.635C29.7769 52.9106 30.54 53.6419 31.2787 54.3488C32.5725 55.5919 34.0425 57 36 57C37.9575 57 39.4256 55.5919 40.7212 54.3488C41.46 53.6419 42.2213 52.9106 42.8906 52.635C43.5037 52.38 44.52 52.365 45.5044 52.35C47.3344 52.3219 49.4081 52.2919 50.85 50.85C52.2919 49.4081 52.3219 47.3344 52.35 45.5044C52.365 44.52 52.38 43.5037 52.635 42.8906C52.9106 42.2231 53.6419 41.46 54.3488 40.7212C55.5919 39.4275 57 37.9575 57 36C57 34.0425 55.5919 32.5744 54.3488 31.2787ZM52.1831 38.6456C51.285 39.5831 50.355 40.5525 49.8619 41.7431C49.3894 42.8869 49.3687 44.1937 49.35 45.4594C49.3312 46.7719 49.3106 48.1463 48.7275 48.7275C48.1444 49.3088 46.7794 49.3312 45.4594 49.35C44.1937 49.3687 42.8869 49.3894 41.7431 49.8619C40.5525 50.355 39.5831 51.285 38.6456 52.1831C37.7081 53.0812 36.75 54 36 54C35.25 54 34.2844 53.0775 33.3544 52.1831C32.4244 51.2887 31.4475 50.355 30.2569 49.8619C29.1131 49.3894 27.8063 49.3687 26.5406 49.35C25.2281 49.3312 23.8538 49.3106 23.2725 48.7275C22.6912 48.1444 22.6687 46.7794 22.65 45.4594C22.6312 44.1937 22.6106 42.8869 22.1381 41.7431C21.645 40.5525 20.715 39.5831 19.8169 38.6456C18.9187 37.7081 18 36.75 18 36C18 35.25 18.9225 34.2844 19.8169 33.3544C20.7112 32.4244 21.645 31.4475 22.1381 30.2569C22.6106 29.1131 22.6312 27.8063 22.65 26.5406C22.6687 25.2281 22.6894 23.8538 23.2725 23.2725C23.8556 22.6912 25.2206 22.6687 26.5406 22.65C27.8063 22.6312 29.1131 22.6106 30.2569 22.1381C31.4475 21.645 32.4169 20.715 33.3544 19.8169C34.2919 18.9187 35.25 18 36 18C36.75 18 37.7156 18.9225 38.6456 19.8169C39.5756 20.7112 40.5525 21.645 41.7431 22.1381C42.8869 22.6106 44.1937 22.6312 45.4594 22.65C46.7719 22.6687 48.1463 22.6894 48.7275 23.2725C49.3088 23.8556 49.3312 25.2206 49.35 26.5406C49.3687 27.8063 49.3894 29.1131 49.8619 30.2569C50.355 31.4475 51.285 32.4169 52.1831 33.3544C53.0812 34.2919 54 35.25 54 36C54 36.75 53.0775 37.7156 52.1831 38.6456ZM44.5613 30.4387C44.7007 30.5781 44.8114 30.7435 44.8868 30.9256C44.9623 31.1077 45.0012 31.3029 45.0012 31.5C45.0012 31.6971 44.9623 31.8923 44.8868 32.0744C44.8114 32.2565 44.7007 32.4219 44.5613 32.5613L34.0613 43.0613C33.9219 43.2007 33.7565 43.3114 33.5744 43.3868C33.3923 43.4623 33.1971 43.5012 33 43.5012C32.8029 43.5012 32.6077 43.4623 32.4256 43.3868C32.2435 43.3114 32.0781 43.2007 31.9387 43.0613L27.4387 38.5613C27.1573 38.2798 26.9992 37.898 26.9992 37.5C26.9992 37.102 27.1573 36.7202 27.4387 36.4387C27.7202 36.1573 28.102 35.9992 28.5 35.9992C28.898 35.9992 29.2798 36.1573 29.5613 36.4387L33 39.8794L42.4387 30.4387C42.5781 30.2993 42.7435 30.1886 42.9256 30.1132C43.1077 30.0377 43.3029 29.9988 43.5 29.9988C43.6971 29.9988 43.8923 30.0377 44.0744 30.1132C44.2565 30.1886 44.4219 30.2993 44.5613 30.4387Z" fill="#1E293B"/>
</svg>
