<svg width="72" height="72" viewBox="0 0 72 72" fill="none" xmlns="http://www.w3.org/2000/svg">
<rect width="72" height="72" fill="#F1F5F9"/>
<path d="M18 24C18 23.6022 18.158 23.2206 18.4393 22.9393C18.7206 22.658 19.1022 22.5 19.5 22.5H52.5C52.8978 22.5 53.2794 22.658 53.5607 22.9393C53.842 23.2206 54 23.6022 54 24C54 24.3978 53.842 24.7794 53.5607 25.0607C53.2794 25.342 52.8978 25.5 52.5 25.5H19.5C19.1022 25.5 18.7206 25.342 18.4393 25.0607C18.158 24.7794 18 24.3978 18 24ZM19.5 37.5H52.5C52.8978 37.5 53.2794 37.342 53.5607 37.0607C53.842 36.7794 54 36.3978 54 36C54 35.6022 53.842 35.2206 53.5607 34.9393C53.2794 34.658 52.8978 34.5 52.5 34.5H19.5C19.1022 34.5 18.7206 34.658 18.4393 34.9393C18.158 35.2206 18 35.6022 18 36C18 36.3978 18.158 36.7794 18.4393 37.0607C18.7206 37.342 19.1022 37.5 19.5 37.5ZM39 46.5H19.5C19.1022 46.5 18.7206 46.658 18.4393 46.9393C18.158 47.2206 18 47.6022 18 48C18 48.3978 18.158 48.7794 18.4393 49.0607C18.7206 49.342 19.1022 49.5 19.5 49.5H39C39.3978 49.5 39.7794 49.342 40.0607 49.0607C40.342 48.7794 40.5 48.3978 40.5 48C40.5 47.6022 40.342 47.2206 40.0607 46.9393C39.7794 46.658 39.3978 46.5 39 46.5ZM55.5 46.5H52.5V43.5C52.5 43.1022 52.342 42.7206 52.0607 42.4393C51.7794 42.158 51.3978 42 51 42C50.6022 42 50.2206 42.158 49.9393 42.4393C49.658 42.7206 49.5 43.1022 49.5 43.5V46.5H46.5C46.1022 46.5 45.7206 46.658 45.4393 46.9393C45.158 47.2206 45 47.6022 45 48C45 48.3978 45.158 48.7794 45.4393 49.0607C45.7206 49.342 46.1022 49.5 46.5 49.5H49.5V52.5C49.5 52.8978 49.658 53.2794 49.9393 53.5607C50.2206 53.842 50.6022 54 51 54C51.3978 54 51.7794 53.842 52.0607 53.5607C52.342 53.2794 52.5 52.8978 52.5 52.5V49.5H55.5C55.8978 49.5 56.2794 49.342 56.5607 49.0607C56.842 48.7794 57 48.3978 57 48C57 47.6022 56.842 47.2206 56.5607 46.9393C56.2794 46.658 55.8978 46.5 55.5 46.5Z" fill="#1E293B"/>
</svg>
