<svg width="72" height="72" viewBox="0 0 72 72" fill="none" xmlns="http://www.w3.org/2000/svg">
<rect width="72" height="72" fill="#F1F5F9"/>
<path d="M36 16.5C30.8283 16.5 25.8684 18.5545 22.2114 22.2114C18.5545 25.8684 16.5 30.8283 16.5 36C16.5 41.1717 18.5545 46.1316 22.2114 49.7886C25.8684 53.4455 30.8283 55.5 36 55.5C40.0331 55.5 44.2687 54.285 47.3306 52.2506C47.4947 52.1415 47.6358 52.0012 47.7456 51.8376C47.8555 51.6741 47.9321 51.4904 47.971 51.2973C48.0099 51.1041 48.0104 50.9051 47.9724 50.7118C47.9345 50.5184 47.8588 50.3344 47.7497 50.1703C47.6406 50.0062 47.5003 49.8652 47.3367 49.7553C47.1731 49.6454 46.9895 49.5688 46.7963 49.5299C46.6031 49.491 46.4042 49.4905 46.2108 49.5285C46.0175 49.5665 45.8335 49.6422 45.6694 49.7513C43.125 51.4463 39.4144 52.5 36 52.5C32.7366 52.5 29.5465 51.5323 26.8331 49.7192C24.1197 47.9062 22.0048 45.3293 20.756 42.3143C19.5071 39.2993 19.1804 35.9817 19.817 32.781C20.4537 29.5803 22.0252 26.6403 24.3327 24.3327C26.6403 22.0252 29.5803 20.4537 32.781 19.817C35.9817 19.1804 39.2993 19.5071 42.3143 20.756C45.3293 22.0048 47.9062 24.1197 49.7192 26.8331C51.5323 29.5465 52.5 32.7366 52.5 36C52.5 40.9594 50.46 42 48.75 42C47.04 42 45 40.9594 45 36V28.5C45 28.1022 44.842 27.7206 44.5607 27.4393C44.2794 27.158 43.8978 27 43.5 27C43.1022 27 42.7206 27.158 42.4393 27.4393C42.158 27.7206 42 28.1022 42 28.5V29.2987C40.6539 28.0919 38.9755 27.3184 37.1835 27.079C35.3915 26.8397 33.569 27.1455 31.9533 27.9568C30.3377 28.7681 29.0038 30.0472 28.1255 31.6274C27.2471 33.2076 26.8651 35.0158 27.0291 36.8162C27.1931 38.6167 27.8956 40.326 29.0449 41.7215C30.1943 43.1171 31.7373 44.1341 33.473 44.6401C35.2087 45.1461 37.0565 45.1177 38.7757 44.5585C40.495 43.9993 42.006 42.9352 43.1119 41.505C44.2369 43.755 46.1775 45 48.75 45C52.9762 45 55.5 41.6362 55.5 36C55.4945 30.83 53.4383 25.8732 49.7826 22.2174C46.1268 18.5617 41.17 16.5055 36 16.5ZM36 42C34.8133 42 33.6533 41.6481 32.6666 40.9888C31.6799 40.3295 30.9108 39.3925 30.4567 38.2961C30.0026 37.1997 29.8838 35.9933 30.1153 34.8295C30.3468 33.6656 30.9182 32.5965 31.7574 31.7574C32.5965 30.9182 33.6656 30.3468 34.8295 30.1153C35.9933 29.8838 37.1997 30.0026 38.2961 30.4567C39.3925 30.9108 40.3295 31.6799 40.9888 32.6666C41.6481 33.6533 42 34.8133 42 36C42 37.5913 41.3679 39.1174 40.2426 40.2426C39.1174 41.3679 37.5913 42 36 42Z" fill="#1E293B"/>
</svg>
