<svg width="32" height="32" viewBox="0 0 32 32" fill="none" xmlns="http://www.w3.org/2000/svg">
<rect width="32" height="32" rx="2" fill="#E2E8F0"/>
<path d="M7.15277 12.504V12.744C6.88077 12.752 6.67277 12.784 6.52877 12.84C6.39277 12.888 6.30077 12.984 6.25277 13.128C6.20477 13.264 6.18077 13.48 6.18077 13.776V19.776C6.18077 20.048 6.20077 20.252 6.24077 20.388C6.28877 20.524 6.37677 20.616 6.50477 20.664C6.64077 20.704 6.83277 20.724 7.08077 20.724H7.86077C8.20477 20.724 8.49277 20.676 8.72477 20.58C8.96477 20.484 9.16477 20.34 9.32477 20.148C9.48477 19.956 9.60877 19.708 9.69677 19.404C9.78477 19.1 9.85277 18.744 9.90077 18.336H10.1768C10.1528 18.592 10.1408 18.928 10.1408 19.344C10.1408 19.504 10.1448 19.74 10.1528 20.052C10.1688 20.356 10.1928 20.672 10.2248 21C9.81677 20.984 9.35677 20.976 8.84477 20.976C8.33277 20.968 7.87677 20.964 7.47677 20.964C7.29277 20.964 7.05677 20.964 6.76877 20.964C6.48077 20.964 6.16877 20.968 5.83277 20.976C5.50477 20.976 5.16877 20.98 4.82477 20.988C4.48877 20.988 4.16477 20.992 3.85277 21V20.76C4.12477 20.744 4.32877 20.712 4.46477 20.664C4.60077 20.616 4.68877 20.52 4.72877 20.376C4.77677 20.232 4.80077 20.016 4.80077 19.728V13.776C4.80077 13.48 4.77677 13.264 4.72877 13.128C4.68877 12.984 4.59677 12.888 4.45277 12.84C4.31677 12.784 4.11677 12.752 3.85277 12.744V12.504C4.03677 12.512 4.27277 12.52 4.56077 12.528C4.85677 12.536 5.17277 12.54 5.50877 12.54C5.81277 12.54 6.11277 12.536 6.40877 12.528C6.71277 12.52 6.96077 12.512 7.15277 12.504ZM11.0012 12.504C11.1852 12.512 11.4212 12.52 11.7092 12.528C12.0052 12.536 12.2972 12.54 12.5852 12.54C12.9692 12.54 13.3332 12.536 13.6772 12.528C14.0292 12.52 14.2772 12.516 14.4212 12.516C15.4372 12.516 16.1972 12.736 16.7012 13.176C17.2052 13.616 17.4572 14.184 17.4572 14.88C17.4572 15.168 17.4052 15.472 17.3012 15.792C17.2052 16.104 17.0332 16.396 16.7852 16.668C16.5372 16.932 16.2012 17.148 15.7772 17.316C15.3532 17.484 14.8132 17.568 14.1572 17.568H12.9812V17.328H14.0372C14.5732 17.328 14.9812 17.22 15.2612 17.004C15.5492 16.788 15.7412 16.504 15.8372 16.152C15.9412 15.8 15.9932 15.42 15.9932 15.012C15.9932 14.252 15.8572 13.684 15.5852 13.308C15.3132 12.932 14.8412 12.744 14.1692 12.744C13.8252 12.744 13.5972 12.812 13.4852 12.948C13.3812 13.084 13.3292 13.36 13.3292 13.776V19.704C13.3292 20 13.3612 20.224 13.4252 20.376C13.4892 20.52 13.6092 20.616 13.7852 20.664C13.9612 20.712 14.2212 20.74 14.5652 20.748V21C14.3492 20.984 14.0692 20.976 13.7252 20.976C13.3812 20.968 13.0252 20.964 12.6572 20.964C12.3372 20.964 12.0292 20.968 11.7332 20.976C11.4452 20.976 11.2012 20.984 11.0012 21V20.76C11.2732 20.744 11.4772 20.712 11.6132 20.664C11.7492 20.616 11.8372 20.52 11.8772 20.376C11.9252 20.232 11.9492 20.016 11.9492 19.728V13.776C11.9492 13.48 11.9252 13.264 11.8772 13.128C11.8372 12.984 11.7452 12.888 11.6012 12.84C11.4652 12.784 11.2652 12.752 11.0012 12.744V12.504ZM21.496 12.504V12.744C21.232 12.752 21.032 12.784 20.896 12.84C20.76 12.888 20.668 12.984 20.62 13.128C20.572 13.264 20.548 13.48 20.548 13.776V19.728C20.548 20.016 20.572 20.232 20.62 20.376C20.668 20.52 20.76 20.616 20.896 20.664C21.032 20.712 21.232 20.744 21.496 20.76V21C21.304 20.984 21.06 20.976 20.764 20.976C20.476 20.968 20.18 20.964 19.876 20.964C19.54 20.964 19.224 20.968 18.928 20.976C18.64 20.976 18.404 20.984 18.22 21V20.76C18.492 20.744 18.696 20.712 18.832 20.664C18.968 20.616 19.056 20.52 19.096 20.376C19.144 20.232 19.168 20.016 19.168 19.728V13.776C19.168 13.48 19.144 13.264 19.096 13.128C19.056 12.984 18.964 12.888 18.82 12.84C18.684 12.784 18.484 12.752 18.22 12.744V12.504C18.404 12.512 18.64 12.52 18.928 12.528C19.224 12.536 19.54 12.54 19.876 12.54C20.18 12.54 20.476 12.536 20.764 12.528C21.06 12.52 21.304 12.512 21.496 12.504ZM25.139 12.36C25.563 12.36 25.887 12.408 26.111 12.504C26.335 12.6 26.531 12.704 26.699 12.816C26.795 12.872 26.871 12.916 26.927 12.948C26.991 12.972 27.051 12.984 27.107 12.984C27.187 12.984 27.243 12.94 27.275 12.852C27.315 12.764 27.347 12.632 27.371 12.456H27.647C27.639 12.6 27.627 12.772 27.611 12.972C27.603 13.164 27.595 13.42 27.587 13.74C27.587 14.06 27.587 14.48 27.587 15H27.311C27.287 14.608 27.199 14.228 27.047 13.86C26.903 13.492 26.687 13.192 26.399 12.96C26.119 12.728 25.759 12.612 25.319 12.612C24.911 12.612 24.571 12.736 24.299 12.984C24.035 13.224 23.903 13.544 23.903 13.944C23.903 14.296 23.991 14.592 24.167 14.832C24.343 15.064 24.583 15.284 24.887 15.492C25.199 15.692 25.551 15.916 25.943 16.164C26.343 16.42 26.703 16.676 27.023 16.932C27.343 17.18 27.595 17.456 27.779 17.76C27.963 18.064 28.055 18.432 28.055 18.864C28.055 19.384 27.931 19.816 27.683 20.16C27.443 20.496 27.119 20.748 26.711 20.916C26.303 21.084 25.855 21.168 25.367 21.168C24.919 21.168 24.563 21.12 24.299 21.024C24.035 20.928 23.811 20.828 23.627 20.724C23.451 20.612 23.315 20.556 23.219 20.556C23.139 20.556 23.079 20.6 23.039 20.688C23.007 20.776 22.979 20.908 22.955 21.084H22.679C22.695 20.908 22.703 20.704 22.703 20.472C22.711 20.232 22.715 19.92 22.715 19.536C22.723 19.152 22.727 18.668 22.727 18.084H23.003C23.035 18.58 23.123 19.044 23.267 19.476C23.419 19.908 23.647 20.256 23.951 20.52C24.263 20.776 24.675 20.904 25.187 20.904C25.459 20.904 25.711 20.852 25.943 20.748C26.175 20.644 26.363 20.48 26.507 20.256C26.651 20.032 26.723 19.744 26.723 19.392C26.723 19.064 26.643 18.776 26.483 18.528C26.331 18.28 26.115 18.052 25.835 17.844C25.563 17.628 25.243 17.408 24.875 17.184C24.499 16.944 24.147 16.704 23.819 16.464C23.491 16.224 23.227 15.944 23.027 15.624C22.835 15.304 22.739 14.924 22.739 14.484C22.739 13.996 22.851 13.596 23.075 13.284C23.307 12.972 23.603 12.74 23.963 12.588C24.331 12.436 24.723 12.36 25.139 12.36Z" fill="#1E293B"/>
</svg>
