<svg width="92" height="36" viewBox="0 0 92 36" fill="none" xmlns="http://www.w3.org/2000/svg">
<rect width="92" height="36" rx="2" fill="#E2E8F0"/>
<path d="M22.048 8.344V8.984C21.3227 9.00533 20.768 9.09067 20.384 9.24C20.0213 9.368 19.776 9.624 19.648 10.008C19.52 10.3707 19.456 10.9467 19.456 11.736V27.736C19.456 28.4613 19.5093 29.0053 19.616 29.368C19.744 29.7307 19.9787 29.976 20.32 30.104C20.6827 30.2107 21.1947 30.264 21.856 30.264H23.936C24.8533 30.264 25.6213 30.136 26.24 29.88C26.88 29.624 27.4133 29.24 27.84 28.728C28.2667 28.216 28.5973 27.5547 28.832 26.744C29.0667 25.9333 29.248 24.984 29.376 23.896H30.112C30.048 24.5787 30.016 25.4747 30.016 26.584C30.016 27.0107 30.0267 27.64 30.048 28.472C30.0907 29.2827 30.1547 30.1253 30.24 31C29.152 30.9573 27.9253 30.936 26.56 30.936C25.1947 30.9147 23.9787 30.904 22.912 30.904C22.4213 30.904 21.792 30.904 21.024 30.904C20.256 30.904 19.424 30.9147 18.528 30.936C17.6533 30.936 16.7573 30.9467 15.84 30.968C14.944 30.968 14.08 30.9787 13.248 31V30.36C13.9733 30.3173 14.5173 30.232 14.88 30.104C15.2427 29.976 15.4773 29.72 15.584 29.336C15.712 28.952 15.776 28.376 15.776 27.608V11.736C15.776 10.9467 15.712 10.3707 15.584 10.008C15.4773 9.624 15.232 9.368 14.848 9.24C14.4853 9.09067 13.952 9.00533 13.248 8.984V8.344C13.7387 8.36533 14.368 8.38667 15.136 8.408C15.9253 8.42933 16.768 8.44 17.664 8.44C18.4747 8.44 19.2747 8.42933 20.064 8.408C20.8747 8.38667 21.536 8.36533 22.048 8.344ZM32.3105 8.344C32.8012 8.36533 33.4305 8.38667 34.1985 8.408C34.9878 8.42933 35.7665 8.44 36.5345 8.44C37.5585 8.44 38.5292 8.42933 39.4465 8.408C40.3852 8.38667 41.0465 8.376 41.4305 8.376C44.1398 8.376 46.1665 8.96267 47.5105 10.136C48.8545 11.3093 49.5265 12.824 49.5265 14.68C49.5265 15.448 49.3878 16.2587 49.1105 17.112C48.8545 17.944 48.3958 18.7227 47.7345 19.448C47.0732 20.152 46.1772 20.728 45.0465 21.176C43.9158 21.624 42.4758 21.848 40.7265 21.848H37.5905V21.208H40.4065C41.8358 21.208 42.9238 20.92 43.6705 20.344C44.4385 19.768 44.9505 19.0107 45.2065 18.072C45.4838 17.1333 45.6225 16.12 45.6225 15.032C45.6225 13.0053 45.2598 11.4907 44.5345 10.488C43.8092 9.48533 42.5505 8.984 40.7585 8.984C39.8412 8.984 39.2332 9.16533 38.9345 9.528C38.6572 9.89067 38.5185 10.6267 38.5185 11.736V27.544C38.5185 28.3333 38.6038 28.9307 38.7745 29.336C38.9452 29.72 39.2652 29.976 39.7345 30.104C40.2038 30.232 40.8972 30.3067 41.8145 30.328V31C41.2385 30.9573 40.4918 30.936 39.5745 30.936C38.6572 30.9147 37.7078 30.904 36.7265 30.904C35.8732 30.904 35.0518 30.9147 34.2625 30.936C33.4945 30.936 32.8438 30.9573 32.3105 31V30.36C33.0358 30.3173 33.5798 30.232 33.9425 30.104C34.3052 29.976 34.5398 29.72 34.6465 29.336C34.7745 28.952 34.8385 28.376 34.8385 27.608V11.736C34.8385 10.9467 34.7745 10.3707 34.6465 10.008C34.5398 9.624 34.2945 9.368 33.9105 9.24C33.5478 9.09067 33.0145 9.00533 32.3105 8.984V8.344ZM60.2965 8.344V8.984C59.5925 9.00533 59.0592 9.09067 58.6965 9.24C58.3338 9.368 58.0885 9.624 57.9605 10.008C57.8325 10.3707 57.7685 10.9467 57.7685 11.736V27.608C57.7685 28.376 57.8325 28.952 57.9605 29.336C58.0885 29.72 58.3338 29.976 58.6965 30.104C59.0592 30.232 59.5925 30.3173 60.2965 30.36V31C59.7845 30.9573 59.1338 30.936 58.3445 30.936C57.5765 30.9147 56.7872 30.904 55.9765 30.904C55.0805 30.904 54.2378 30.9147 53.4485 30.936C52.6805 30.936 52.0512 30.9573 51.5605 31V30.36C52.2858 30.3173 52.8298 30.232 53.1925 30.104C53.5552 29.976 53.7898 29.72 53.8965 29.336C54.0245 28.952 54.0885 28.376 54.0885 27.608V11.736C54.0885 10.9467 54.0245 10.3707 53.8965 10.008C53.7898 9.624 53.5445 9.368 53.1605 9.24C52.7978 9.09067 52.2645 9.00533 51.5605 8.984V8.344C52.0512 8.36533 52.6805 8.38667 53.4485 8.408C54.2378 8.42933 55.0805 8.44 55.9765 8.44C56.7872 8.44 57.5765 8.42933 58.3445 8.408C59.1338 8.38667 59.7845 8.36533 60.2965 8.344ZM70.0113 7.96C71.1419 7.96 72.0059 8.088 72.6033 8.344C73.2006 8.6 73.7233 8.87733 74.1713 9.176C74.4273 9.32533 74.6299 9.44267 74.7793 9.528C74.9499 9.592 75.1099 9.624 75.2593 9.624C75.4726 9.624 75.6219 9.50667 75.7073 9.272C75.8139 9.03733 75.8993 8.68533 75.9633 8.216H76.6993C76.6779 8.6 76.6459 9.05867 76.6033 9.592C76.5819 10.104 76.5606 10.7867 76.5393 11.64C76.5393 12.4933 76.5393 13.6133 76.5393 15H75.8033C75.7393 13.9547 75.5046 12.9413 75.0993 11.96C74.7153 10.9787 74.1393 10.1787 73.3713 9.56C72.6246 8.94133 71.6646 8.632 70.4913 8.632C69.4033 8.632 68.4966 8.96266 67.7713 9.624C67.0673 10.264 66.7153 11.1173 66.7153 12.184C66.7153 13.1227 66.9499 13.912 67.4193 14.552C67.8886 15.1707 68.5286 15.7573 69.3393 16.312C70.1713 16.8453 71.1099 17.4427 72.1553 18.104C73.2219 18.7867 74.1819 19.4693 75.0353 20.152C75.8886 20.8133 76.5606 21.5493 77.0513 22.36C77.5419 23.1707 77.7873 24.152 77.7873 25.304C77.7873 26.6907 77.4566 27.8427 76.7953 28.76C76.1553 29.656 75.2913 30.328 74.2033 30.776C73.1153 31.224 71.9206 31.448 70.6193 31.448C69.4246 31.448 68.4753 31.32 67.7713 31.064C67.0673 30.808 66.4699 30.5413 65.9793 30.264C65.5099 29.9653 65.1473 29.816 64.8913 29.816C64.6779 29.816 64.5179 29.9333 64.4113 30.168C64.3259 30.4027 64.2513 30.7547 64.1873 31.224H63.4513C63.4939 30.7547 63.5153 30.2107 63.5153 29.592C63.5366 28.952 63.5473 28.12 63.5473 27.096C63.5686 26.072 63.5793 24.7813 63.5793 23.224H64.3153C64.4006 24.5467 64.6353 25.784 65.0193 26.936C65.4246 28.088 66.0326 29.016 66.8433 29.72C67.6753 30.4027 68.7739 30.744 70.1393 30.744C70.8646 30.744 71.5366 30.6053 72.1553 30.328C72.7739 30.0507 73.2753 29.6133 73.6593 29.016C74.0433 28.4187 74.2353 27.6507 74.2353 26.712C74.2353 25.8373 74.0219 25.0693 73.5953 24.408C73.1899 23.7467 72.6139 23.1387 71.8673 22.584C71.1419 22.008 70.2886 21.4213 69.3073 20.824C68.3046 20.184 67.3659 19.544 66.4913 18.904C65.6166 18.264 64.9126 17.5173 64.3793 16.664C63.8673 15.8107 63.6113 14.7973 63.6113 13.624C63.6113 12.3227 63.9099 11.256 64.5073 10.424C65.1259 9.592 65.9153 8.97333 66.8753 8.568C67.8566 8.16267 68.9019 7.96 70.0113 7.96Z" fill="#1E293B"/>
</svg>
