<svg width="72" height="72" viewBox="0 0 72 72" fill="none" xmlns="http://www.w3.org/2000/svg">
<rect width="72" height="72" fill="#F1F5F9"/>
<path d="M55.5 18C55.5 17.6022 55.3419 17.2206 55.0606 16.9393C54.7793 16.658 54.3978 16.5 54 16.5C45.735 16.5 37.2544 25.8206 32.5444 31.9931C30.8622 31.478 29.0827 31.3645 27.3488 31.6618C25.6149 31.9591 23.9748 32.6589 22.5604 33.705C21.146 34.7511 19.9966 36.1143 19.2046 37.6852C18.4125 39.256 18 40.9908 18 42.75C18 48.54 14.3362 51.1369 14.1619 51.2569C13.8958 51.4366 13.6944 51.6969 13.5872 51.9995C13.4801 52.3022 13.4729 52.6312 13.5667 52.9383C13.6606 53.2454 13.8504 53.5142 14.1084 53.7053C14.3664 53.8964 14.6789 53.9997 15 54H29.25C31.0092 54 32.7439 53.5874 34.3148 52.7954C35.8857 52.0034 37.2489 50.854 38.295 49.4396C39.3411 48.0252 40.0409 46.3851 40.3382 44.6512C40.6355 42.9172 40.522 41.1377 40.0069 39.4556C46.1812 34.7456 55.5 26.265 55.5 18ZM29.25 51H18.4931C19.7587 49.2019 21 46.485 21 42.75C21 41.1183 21.4838 39.5233 22.3904 38.1665C23.2969 36.8098 24.5853 35.7524 26.0928 35.128C27.6003 34.5036 29.2591 34.3402 30.8595 34.6585C32.4598 34.9769 33.9298 35.7626 35.0836 36.9164C36.2374 38.0702 37.0231 39.5402 37.3415 41.1405C37.6598 42.7408 37.4964 44.3996 36.872 45.9071C36.2476 47.4146 35.1901 48.7031 33.8334 49.6096C32.4767 50.5161 30.8817 51 29.25 51ZM35.3287 33.2906C35.9712 32.4581 36.6019 31.6737 37.2206 30.9375C38.7351 31.9607 40.0393 33.2649 41.0625 34.7794C40.325 35.3969 39.5406 36.0275 38.7094 36.6712C37.8353 35.3172 36.6828 34.1647 35.3287 33.2906ZM43.335 32.7881C42.2025 31.1902 40.8079 29.7956 39.21 28.6631C45.1687 22.1888 49.6631 20.2256 52.3162 19.68C51.7819 22.335 49.8094 26.8294 43.335 32.7881Z" fill="#1E293B"/>
</svg>
