<svg width="470" height="215" viewBox="0 0 470 215" fill="none" xmlns="http://www.w3.org/2000/svg">
<rect width="470" height="215" rx="10" fill="#292929"/>
<path d="M150.5 103.434C150.5 121.623 131.472 118.254 108 118.254C84.5279 118.254 65.5 121.623 65.5 103.434C65.5 85.2449 84.5279 70.5 108 70.5C131.472 70.5 150.5 85.2449 150.5 103.434Z" fill="#CED7E4"/>
<rect x="69.5" y="120.5" width="77" height="24" rx="9" fill="#CED7E4"/>
<path d="M163.56 123V91.5H176.205C179.475 91.5 181.965 92.265 183.675 93.795C185.415 95.295 186.285 97.23 186.285 99.6C186.285 101.58 185.745 103.17 184.665 104.37C183.615 105.54 182.325 106.335 180.795 106.755C182.595 107.115 184.08 108.015 185.25 109.455C186.42 110.865 187.005 112.515 187.005 114.405C187.005 116.895 186.105 118.95 184.305 120.57C182.505 122.19 179.955 123 176.655 123H163.56ZM169.32 104.73H175.35C176.97 104.73 178.215 104.355 179.085 103.605C179.955 102.855 180.39 101.79 180.39 100.41C180.39 99.09 179.955 98.055 179.085 97.305C178.245 96.525 176.97 96.135 175.26 96.135H169.32V104.73ZM169.32 118.32H175.755C177.465 118.32 178.785 117.93 179.715 117.15C180.675 116.34 181.155 115.215 181.155 113.775C181.155 112.305 180.66 111.15 179.67 110.31C178.68 109.47 177.345 109.05 175.665 109.05H169.32V118.32ZM200.334 123.54C197.544 123.54 195.384 122.67 193.854 120.93C192.354 119.19 191.604 116.64 191.604 113.28V100.68H197.319V112.74C197.319 114.66 197.709 116.13 198.489 117.15C199.269 118.17 200.499 118.68 202.179 118.68C203.769 118.68 205.074 118.11 206.094 116.97C207.144 115.83 207.669 114.24 207.669 112.2V100.68H213.429V123H208.344L207.894 119.22C207.204 120.54 206.199 121.59 204.879 122.37C203.589 123.15 202.074 123.54 200.334 123.54ZM219.492 123V100.68H224.622L225.162 104.865C225.972 103.425 227.067 102.285 228.447 101.445C229.857 100.575 231.507 100.14 233.397 100.14V106.215H231.777C230.517 106.215 229.392 106.41 228.402 106.8C227.412 107.19 226.632 107.865 226.062 108.825C225.522 109.785 225.252 111.12 225.252 112.83V123H219.492ZM246.406 116.34C245.326 116.34 244.321 116.22 243.391 115.98L241.726 117.645C242.236 117.915 242.926 118.14 243.796 118.32C244.666 118.5 246.076 118.68 248.026 118.86C250.996 119.13 253.156 119.835 254.506 120.975C255.856 122.115 256.531 123.69 256.531 125.7C256.531 127.02 256.171 128.265 255.451 129.435C254.731 130.635 253.621 131.595 252.121 132.315C250.621 133.065 248.701 133.44 246.361 133.44C243.181 133.44 240.616 132.84 238.666 131.64C236.716 130.47 235.741 128.7 235.741 126.33C235.741 124.32 236.716 122.58 238.666 121.11C238.066 120.84 237.541 120.555 237.091 120.255C236.671 119.955 236.296 119.64 235.966 119.31V118.275L239.881 114.135C238.141 112.605 237.271 110.64 237.271 108.24C237.271 106.74 237.631 105.375 238.351 104.145C239.101 102.915 240.151 101.94 241.501 101.22C242.851 100.5 244.486 100.14 246.406 100.14C247.666 100.14 248.836 100.32 249.916 100.68H258.376V104.19L254.551 104.46C255.151 105.6 255.451 106.86 255.451 108.24C255.451 109.74 255.091 111.105 254.371 112.335C253.651 113.565 252.601 114.54 251.221 115.26C249.871 115.98 248.266 116.34 246.406 116.34ZM246.406 111.93C247.576 111.93 248.536 111.615 249.286 110.985C250.066 110.355 250.456 109.455 250.456 108.285C250.456 107.115 250.066 106.215 249.286 105.585C248.536 104.955 247.576 104.64 246.406 104.64C245.176 104.64 244.186 104.955 243.436 105.585C242.686 106.215 242.311 107.115 242.311 108.285C242.311 109.455 242.686 110.355 243.436 110.985C244.186 111.615 245.176 111.93 246.406 111.93ZM241.006 125.745C241.006 126.855 241.516 127.68 242.536 128.22C243.586 128.79 244.861 129.075 246.361 129.075C247.801 129.075 248.971 128.775 249.871 128.175C250.771 127.605 251.221 126.825 251.221 125.835C251.221 125.025 250.921 124.35 250.321 123.81C249.751 123.27 248.596 122.94 246.856 122.82C245.626 122.73 244.486 122.595 243.436 122.415C242.566 122.895 241.936 123.42 241.546 123.99C241.186 124.56 241.006 125.145 241.006 125.745ZM272.692 123.54C270.442 123.54 268.447 123.06 266.707 122.1C264.967 121.14 263.602 119.79 262.612 118.05C261.622 116.31 261.127 114.3 261.127 112.02C261.127 109.71 261.607 107.655 262.567 105.855C263.557 104.055 264.907 102.66 266.617 101.67C268.357 100.65 270.397 100.14 272.737 100.14C274.927 100.14 276.862 100.62 278.542 101.58C280.222 102.54 281.527 103.86 282.457 105.54C283.417 107.19 283.897 109.035 283.897 111.075C283.897 111.405 283.882 111.75 283.852 112.11C283.852 112.47 283.837 112.845 283.807 113.235H266.842C266.962 114.975 267.562 116.34 268.642 117.33C269.752 118.32 271.087 118.815 272.647 118.815C273.817 118.815 274.792 118.56 275.572 118.05C276.382 117.51 276.982 116.82 277.372 115.98H283.222C282.802 117.39 282.097 118.68 281.107 119.85C280.147 120.99 278.947 121.89 277.507 122.55C276.097 123.21 274.492 123.54 272.692 123.54ZM272.737 104.82C271.327 104.82 270.082 105.225 269.002 106.035C267.922 106.815 267.232 108.015 266.932 109.635H278.047C277.957 108.165 277.417 106.995 276.427 106.125C275.437 105.255 274.207 104.82 272.737 104.82ZM288.892 123V100.68H294.022L294.562 104.865C295.372 103.425 296.467 102.285 297.847 101.445C299.257 100.575 300.907 100.14 302.797 100.14V106.215H301.177C299.917 106.215 298.792 106.41 297.802 106.8C296.812 107.19 296.032 107.865 295.462 108.825C294.922 109.785 294.652 111.12 294.652 112.83V123H288.892ZM307.019 123V91.5H319.664C322.934 91.5 325.424 92.265 327.134 93.795C328.874 95.295 329.744 97.23 329.744 99.6C329.744 101.58 329.204 103.17 328.124 104.37C327.074 105.54 325.784 106.335 324.254 106.755C326.054 107.115 327.539 108.015 328.709 109.455C329.879 110.865 330.464 112.515 330.464 114.405C330.464 116.895 329.564 118.95 327.764 120.57C325.964 122.19 323.414 123 320.114 123H307.019ZM312.779 104.73H318.809C320.429 104.73 321.674 104.355 322.544 103.605C323.414 102.855 323.849 101.79 323.849 100.41C323.849 99.09 323.414 98.055 322.544 97.305C321.704 96.525 320.429 96.135 318.719 96.135H312.779V104.73ZM312.779 118.32H319.214C320.924 118.32 322.244 117.93 323.174 117.15C324.134 116.34 324.614 115.215 324.614 113.775C324.614 112.305 324.119 111.15 323.129 110.31C322.139 109.47 320.804 109.05 319.124 109.05H312.779V118.32ZM335.422 123V90.6H341.182V123H335.422ZM350.323 97.215C349.273 97.215 348.403 96.9 347.713 96.27C347.053 95.64 346.723 94.845 346.723 93.885C346.723 92.925 347.053 92.145 347.713 91.545C348.403 90.915 349.273 90.6 350.323 90.6C351.373 90.6 352.228 90.915 352.888 91.545C353.578 92.145 353.923 92.925 353.923 93.885C353.923 94.845 353.578 95.64 352.888 96.27C352.228 96.9 351.373 97.215 350.323 97.215ZM347.443 123V100.68H353.203V123H347.443ZM368.59 123.54C366.61 123.54 364.87 123.225 363.37 122.595C361.87 121.935 360.67 121.035 359.77 119.895C358.87 118.755 358.33 117.435 358.15 115.935H363.955C364.135 116.805 364.615 117.555 365.395 118.185C366.205 118.785 367.24 119.085 368.5 119.085C369.76 119.085 370.675 118.83 371.245 118.32C371.845 117.81 372.145 117.225 372.145 116.565C372.145 115.605 371.725 114.96 370.885 114.63C370.045 114.27 368.875 113.925 367.375 113.595C366.415 113.385 365.44 113.13 364.45 112.83C363.46 112.53 362.545 112.155 361.705 111.705C360.895 111.225 360.235 110.625 359.725 109.905C359.215 109.155 358.96 108.24 358.96 107.16C358.96 105.18 359.74 103.515 361.3 102.165C362.89 100.815 365.11 100.14 367.96 100.14C370.6 100.14 372.7 100.755 374.26 101.985C375.85 103.215 376.795 104.91 377.095 107.07H371.65C371.32 105.42 370.075 104.595 367.915 104.595C366.835 104.595 365.995 104.805 365.395 105.225C364.825 105.645 364.54 106.17 364.54 106.8C364.54 107.46 364.975 107.985 365.845 108.375C366.715 108.765 367.87 109.125 369.31 109.455C370.87 109.815 372.295 110.22 373.585 110.67C374.905 111.09 375.955 111.735 376.735 112.605C377.515 113.445 377.905 114.66 377.905 116.25C377.935 117.63 377.575 118.875 376.825 119.985C376.075 121.095 374.995 121.965 373.585 122.595C372.175 123.225 370.51 123.54 368.59 123.54ZM392.382 123.54C390.402 123.54 388.662 123.225 387.162 122.595C385.662 121.935 384.462 121.035 383.562 119.895C382.662 118.755 382.122 117.435 381.942 115.935H387.747C387.927 116.805 388.407 117.555 389.187 118.185C389.997 118.785 391.032 119.085 392.292 119.085C393.552 119.085 394.467 118.83 395.037 118.32C395.637 117.81 395.937 117.225 395.937 116.565C395.937 115.605 395.517 114.96 394.677 114.63C393.837 114.27 392.667 113.925 391.167 113.595C390.207 113.385 389.232 113.13 388.242 112.83C387.252 112.53 386.337 112.155 385.497 111.705C384.687 111.225 384.027 110.625 383.517 109.905C383.007 109.155 382.752 108.24 382.752 107.16C382.752 105.18 383.532 103.515 385.092 102.165C386.682 100.815 388.902 100.14 391.752 100.14C394.392 100.14 396.492 100.755 398.052 101.985C399.642 103.215 400.587 104.91 400.887 107.07H395.442C395.112 105.42 393.867 104.595 391.707 104.595C390.627 104.595 389.787 104.805 389.187 105.225C388.617 105.645 388.332 106.17 388.332 106.8C388.332 107.46 388.767 107.985 389.637 108.375C390.507 108.765 391.662 109.125 393.102 109.455C394.662 109.815 396.087 110.22 397.377 110.67C398.697 111.09 399.747 111.735 400.527 112.605C401.307 113.445 401.697 114.66 401.697 116.25C401.727 117.63 401.367 118.875 400.617 119.985C399.867 121.095 398.787 121.965 397.377 122.595C395.967 123.225 394.302 123.54 392.382 123.54Z" fill="#536C8B"/>
</svg>
