<svg width="480" height="215" viewBox="0 0 480 215" fill="none" xmlns="http://www.w3.org/2000/svg">
<rect width="480" height="215" rx="10" fill="white"/>
<path d="M155.5 103.434C155.5 121.623 136.472 118.254 113 118.254C89.5279 118.254 70.5 121.623 70.5 103.434C70.5 85.2449 89.5279 70.5 113 70.5C136.472 70.5 155.5 85.2449 155.5 103.434Z" fill="#2A2A2A"/>
<rect x="74.5" y="120.5" width="77" height="24" rx="9" fill="#2A2A2A"/>
<path d="M168.56 123V91.5H181.205C184.475 91.5 186.965 92.265 188.675 93.795C190.415 95.295 191.285 97.23 191.285 99.6C191.285 101.58 190.745 103.17 189.665 104.37C188.615 105.54 187.325 106.335 185.795 106.755C187.595 107.115 189.08 108.015 190.25 109.455C191.42 110.865 192.005 112.515 192.005 114.405C192.005 116.895 191.105 118.95 189.305 120.57C187.505 122.19 184.955 123 181.655 123H168.56ZM174.32 104.73H180.35C181.97 104.73 183.215 104.355 184.085 103.605C184.955 102.855 185.39 101.79 185.39 100.41C185.39 99.09 184.955 98.055 184.085 97.305C183.245 96.525 181.97 96.135 180.26 96.135H174.32V104.73ZM174.32 118.32H180.755C182.465 118.32 183.785 117.93 184.715 117.15C185.675 116.34 186.155 115.215 186.155 113.775C186.155 112.305 185.66 111.15 184.67 110.31C183.68 109.47 182.345 109.05 180.665 109.05H174.32V118.32ZM205.334 123.54C202.544 123.54 200.384 122.67 198.854 120.93C197.354 119.19 196.604 116.64 196.604 113.28V100.68H202.319V112.74C202.319 114.66 202.709 116.13 203.489 117.15C204.269 118.17 205.499 118.68 207.179 118.68C208.769 118.68 210.074 118.11 211.094 116.97C212.144 115.83 212.669 114.24 212.669 112.2V100.68H218.429V123H213.344L212.894 119.22C212.204 120.54 211.199 121.59 209.879 122.37C208.589 123.15 207.074 123.54 205.334 123.54ZM224.492 123V100.68H229.622L230.162 104.865C230.972 103.425 232.067 102.285 233.447 101.445C234.857 100.575 236.507 100.14 238.397 100.14V106.215H236.777C235.517 106.215 234.392 106.41 233.402 106.8C232.412 107.19 231.632 107.865 231.062 108.825C230.522 109.785 230.252 111.12 230.252 112.83V123H224.492ZM251.406 116.34C250.326 116.34 249.321 116.22 248.391 115.98L246.726 117.645C247.236 117.915 247.926 118.14 248.796 118.32C249.666 118.5 251.076 118.68 253.026 118.86C255.996 119.13 258.156 119.835 259.506 120.975C260.856 122.115 261.531 123.69 261.531 125.7C261.531 127.02 261.171 128.265 260.451 129.435C259.731 130.635 258.621 131.595 257.121 132.315C255.621 133.065 253.701 133.44 251.361 133.44C248.181 133.44 245.616 132.84 243.666 131.64C241.716 130.47 240.741 128.7 240.741 126.33C240.741 124.32 241.716 122.58 243.666 121.11C243.066 120.84 242.541 120.555 242.091 120.255C241.671 119.955 241.296 119.64 240.966 119.31V118.275L244.881 114.135C243.141 112.605 242.271 110.64 242.271 108.24C242.271 106.74 242.631 105.375 243.351 104.145C244.101 102.915 245.151 101.94 246.501 101.22C247.851 100.5 249.486 100.14 251.406 100.14C252.666 100.14 253.836 100.32 254.916 100.68H263.376V104.19L259.551 104.46C260.151 105.6 260.451 106.86 260.451 108.24C260.451 109.74 260.091 111.105 259.371 112.335C258.651 113.565 257.601 114.54 256.221 115.26C254.871 115.98 253.266 116.34 251.406 116.34ZM251.406 111.93C252.576 111.93 253.536 111.615 254.286 110.985C255.066 110.355 255.456 109.455 255.456 108.285C255.456 107.115 255.066 106.215 254.286 105.585C253.536 104.955 252.576 104.64 251.406 104.64C250.176 104.64 249.186 104.955 248.436 105.585C247.686 106.215 247.311 107.115 247.311 108.285C247.311 109.455 247.686 110.355 248.436 110.985C249.186 111.615 250.176 111.93 251.406 111.93ZM246.006 125.745C246.006 126.855 246.516 127.68 247.536 128.22C248.586 128.79 249.861 129.075 251.361 129.075C252.801 129.075 253.971 128.775 254.871 128.175C255.771 127.605 256.221 126.825 256.221 125.835C256.221 125.025 255.921 124.35 255.321 123.81C254.751 123.27 253.596 122.94 251.856 122.82C250.626 122.73 249.486 122.595 248.436 122.415C247.566 122.895 246.936 123.42 246.546 123.99C246.186 124.56 246.006 125.145 246.006 125.745ZM277.692 123.54C275.442 123.54 273.447 123.06 271.707 122.1C269.967 121.14 268.602 119.79 267.612 118.05C266.622 116.31 266.127 114.3 266.127 112.02C266.127 109.71 266.607 107.655 267.567 105.855C268.557 104.055 269.907 102.66 271.617 101.67C273.357 100.65 275.397 100.14 277.737 100.14C279.927 100.14 281.862 100.62 283.542 101.58C285.222 102.54 286.527 103.86 287.457 105.54C288.417 107.19 288.897 109.035 288.897 111.075C288.897 111.405 288.882 111.75 288.852 112.11C288.852 112.47 288.837 112.845 288.807 113.235H271.842C271.962 114.975 272.562 116.34 273.642 117.33C274.752 118.32 276.087 118.815 277.647 118.815C278.817 118.815 279.792 118.56 280.572 118.05C281.382 117.51 281.982 116.82 282.372 115.98H288.222C287.802 117.39 287.097 118.68 286.107 119.85C285.147 120.99 283.947 121.89 282.507 122.55C281.097 123.21 279.492 123.54 277.692 123.54ZM277.737 104.82C276.327 104.82 275.082 105.225 274.002 106.035C272.922 106.815 272.232 108.015 271.932 109.635H283.047C282.957 108.165 282.417 106.995 281.427 106.125C280.437 105.255 279.207 104.82 277.737 104.82ZM293.892 123V100.68H299.022L299.562 104.865C300.372 103.425 301.467 102.285 302.847 101.445C304.257 100.575 305.907 100.14 307.797 100.14V106.215H306.177C304.917 106.215 303.792 106.41 302.802 106.8C301.812 107.19 301.032 107.865 300.462 108.825C299.922 109.785 299.652 111.12 299.652 112.83V123H293.892ZM312.019 123V91.5H324.664C327.934 91.5 330.424 92.265 332.134 93.795C333.874 95.295 334.744 97.23 334.744 99.6C334.744 101.58 334.204 103.17 333.124 104.37C332.074 105.54 330.784 106.335 329.254 106.755C331.054 107.115 332.539 108.015 333.709 109.455C334.879 110.865 335.464 112.515 335.464 114.405C335.464 116.895 334.564 118.95 332.764 120.57C330.964 122.19 328.414 123 325.114 123H312.019ZM317.779 104.73H323.809C325.429 104.73 326.674 104.355 327.544 103.605C328.414 102.855 328.849 101.79 328.849 100.41C328.849 99.09 328.414 98.055 327.544 97.305C326.704 96.525 325.429 96.135 323.719 96.135H317.779V104.73ZM317.779 118.32H324.214C325.924 118.32 327.244 117.93 328.174 117.15C329.134 116.34 329.614 115.215 329.614 113.775C329.614 112.305 329.119 111.15 328.129 110.31C327.139 109.47 325.804 109.05 324.124 109.05H317.779V118.32ZM340.422 123V90.6H346.182V123H340.422ZM355.323 97.215C354.273 97.215 353.403 96.9 352.713 96.27C352.053 95.64 351.723 94.845 351.723 93.885C351.723 92.925 352.053 92.145 352.713 91.545C353.403 90.915 354.273 90.6 355.323 90.6C356.373 90.6 357.228 90.915 357.888 91.545C358.578 92.145 358.923 92.925 358.923 93.885C358.923 94.845 358.578 95.64 357.888 96.27C357.228 96.9 356.373 97.215 355.323 97.215ZM352.443 123V100.68H358.203V123H352.443ZM373.59 123.54C371.61 123.54 369.87 123.225 368.37 122.595C366.87 121.935 365.67 121.035 364.77 119.895C363.87 118.755 363.33 117.435 363.15 115.935H368.955C369.135 116.805 369.615 117.555 370.395 118.185C371.205 118.785 372.24 119.085 373.5 119.085C374.76 119.085 375.675 118.83 376.245 118.32C376.845 117.81 377.145 117.225 377.145 116.565C377.145 115.605 376.725 114.96 375.885 114.63C375.045 114.27 373.875 113.925 372.375 113.595C371.415 113.385 370.44 113.13 369.45 112.83C368.46 112.53 367.545 112.155 366.705 111.705C365.895 111.225 365.235 110.625 364.725 109.905C364.215 109.155 363.96 108.24 363.96 107.16C363.96 105.18 364.74 103.515 366.3 102.165C367.89 100.815 370.11 100.14 372.96 100.14C375.6 100.14 377.7 100.755 379.26 101.985C380.85 103.215 381.795 104.91 382.095 107.07H376.65C376.32 105.42 375.075 104.595 372.915 104.595C371.835 104.595 370.995 104.805 370.395 105.225C369.825 105.645 369.54 106.17 369.54 106.8C369.54 107.46 369.975 107.985 370.845 108.375C371.715 108.765 372.87 109.125 374.31 109.455C375.87 109.815 377.295 110.22 378.585 110.67C379.905 111.09 380.955 111.735 381.735 112.605C382.515 113.445 382.905 114.66 382.905 116.25C382.935 117.63 382.575 118.875 381.825 119.985C381.075 121.095 379.995 121.965 378.585 122.595C377.175 123.225 375.51 123.54 373.59 123.54ZM397.382 123.54C395.402 123.54 393.662 123.225 392.162 122.595C390.662 121.935 389.462 121.035 388.562 119.895C387.662 118.755 387.122 117.435 386.942 115.935H392.747C392.927 116.805 393.407 117.555 394.187 118.185C394.997 118.785 396.032 119.085 397.292 119.085C398.552 119.085 399.467 118.83 400.037 118.32C400.637 117.81 400.937 117.225 400.937 116.565C400.937 115.605 400.517 114.96 399.677 114.63C398.837 114.27 397.667 113.925 396.167 113.595C395.207 113.385 394.232 113.13 393.242 112.83C392.252 112.53 391.337 112.155 390.497 111.705C389.687 111.225 389.027 110.625 388.517 109.905C388.007 109.155 387.752 108.24 387.752 107.16C387.752 105.18 388.532 103.515 390.092 102.165C391.682 100.815 393.902 100.14 396.752 100.14C399.392 100.14 401.492 100.755 403.052 101.985C404.642 103.215 405.587 104.91 405.887 107.07H400.442C400.112 105.42 398.867 104.595 396.707 104.595C395.627 104.595 394.787 104.805 394.187 105.225C393.617 105.645 393.332 106.17 393.332 106.8C393.332 107.46 393.767 107.985 394.637 108.375C395.507 108.765 396.662 109.125 398.102 109.455C399.662 109.815 401.087 110.22 402.377 110.67C403.697 111.09 404.747 111.735 405.527 112.605C406.307 113.445 406.697 114.66 406.697 116.25C406.727 117.63 406.367 118.875 405.617 119.985C404.867 121.095 403.787 121.965 402.377 122.595C400.967 123.225 399.302 123.54 397.382 123.54Z" fill="#486284"/>
</svg>
