<svg width="40" height="40" viewBox="0 0 40 40" fill="none" xmlns="http://www.w3.org/2000/svg">
<rect width="40" height="40" rx="4" fill="#CC0001"/>
<path d="M20 10.4231C22.5558 10.4231 24.9615 11.4212 26.7731 13.2269C28.5788 15.0385 29.5769 17.4442 29.5769 20C29.5769 22.5558 28.5788 24.9615 26.7731 26.7731C24.9615 28.5788 22.5558 29.5769 20 29.5769C17.4442 29.5769 15.0385 28.5788 13.2269 26.7731C11.4212 24.9615 10.4231 22.5558 10.4231 20C10.4231 17.4442 11.4212 15.0385 13.2269 13.2269C15.0385 11.4212 17.4442 10.4231 20 10.4231ZM20 8C13.3712 8 8 13.3712 8 20C8 26.6288 13.3712 32 20 32C26.6288 32 32 26.6288 32 20C32 13.3712 26.6288 8 20 8Z" fill="#F1F5F9"/>
<path d="M21.2121 26H18.7891V18.7885H21.2121V26ZM21.2121 16.4231H18.7891V14H21.2121V16.4231Z" fill="#F1F5F9"/>
</svg>
