<svg width="40" height="40" viewBox="0 0 40 40" fill="none" xmlns="http://www.w3.org/2000/svg">
<rect width="40" height="40" rx="4" fill="#CC0001"/>
<path d="M17.2308 31.1429V25.1347C17.2308 24.7148 17.6923 24.2862 18.1538 24.2862H21.8462C22.3077 24.2862 22.7692 24.7148 22.7692 25.1433V31.1429C22.7692 31.3702 22.8665 31.5882 23.0396 31.749C23.2127 31.9097 23.4475 32 23.6923 32H31.0769C31.3217 32 31.5565 31.9097 31.7296 31.749C31.9027 31.5882 32 31.3702 32 31.1429V19.1437C32.0002 19.031 31.9765 18.9195 31.9303 18.8154C31.884 18.7112 31.8161 18.6166 31.7305 18.5369L29.2308 16.2176V10.5728C29.2308 10.3455 29.1335 10.1275 28.9604 9.96674C28.7873 9.80601 28.5525 9.71571 28.3077 9.71571H26.4615C26.2167 9.71571 25.9819 9.80601 25.8088 9.96674C25.6357 10.1275 25.5385 10.3455 25.5385 10.5728V12.7892L20.6535 8.2518C20.5678 8.17198 20.4659 8.10866 20.3538 8.06545C20.2416 8.02224 20.1214 8 20 8C19.8786 8 19.7584 8.02224 19.6462 8.06545C19.5341 8.10866 19.4322 8.17198 19.3465 8.2518L8.26954 18.5369C8.18388 18.6166 8.11598 18.7112 8.06973 18.8154C8.02348 18.9195 7.99978 19.031 8 19.1437V31.1429C8 31.3702 8.09725 31.5882 8.27036 31.749C8.44347 31.9097 8.67826 32 8.92308 32H16.3077C16.5525 32 16.7873 31.9097 16.9604 31.749C17.1335 31.5882 17.2308 31.3702 17.2308 31.1429Z" fill="#F1F5F9"/>
</svg>
